<?xml version="1.0" encoding="UTF-8"?>
<svg width="567.91mm" height="302.12mm" version="1.1" viewBox="0 0 2012.271 1070.4947" xmlns="http://www.w3.org/2000/svg">
 <defs>
  <clipPath id="g">
   <path d="m-826.56-1500.3c-36.169 0.2378-69.868 10.857-93.439 38.357-33.069 38.581-48.152 87.818-61.145 111.92-16.404-3.009-39.311-1.8401-45.332 22.242-8.0812 32.325-16.082 66.689 0.08 62.648 8.7149-2.1788 31.191 16.007 42.785 16.627 12.721 63.633 34.135 145.54 137.9 157.99 142.86 17.143 211.43-40 217.14-160 0.92572-19.44 2.4544-36.146 4.1426-50.746 3.0806 1.2441 6.4882 1.9668 10.258 1.9668 28.284 0 28.284-20.203 36.365-60.609 5.1923-25.962-19.63-26.895-38.049-24.25-1.6242-17.392-9.4207-31.051-29.859-49.219-33.75-30-111.8-67.384-180.85-66.93z" color="#000000" color-rendering="auto" fill="#f4ccb2" fill-rule="evenodd" image-rendering="auto" shape-rendering="auto" solid-color="#000000" style="isolation:auto;mix-blend-mode:normal"/>
  </clipPath>
  <clipPath id="h">
   <path d="m623.86-1514.1c-36.169 0.2378-107.87 12.857-131.44 40.357-33.069 38.581-10.152 85.818-23.145 109.92-16.404-3.009-35.312 8.1599-41.332 32.242-8.0812 32.325-4.1239 19.884 5.9795 46.992 0 0 25.291 15.664 36.886 16.284 12.721 63.633 38.135 173.54 141.9 185.99 142.86 17.143 203.43-62 209.14-182 0.92572-19.44 2.4544-36.146 4.1426-50.746 3.0806 1.2441 6.4882 1.9668 10.258 1.9668 28.284 0 28.284-20.203 36.365-60.609 5.1923-25.962-35.63-22.895-54.049-20.25-1.6242-17.392-8.5923-70.122-29.031-88.29-33.75-30-96.625-32.313-165.67-31.858z" color="#000000" color-rendering="auto" fill="#e8c4ac" fill-rule="evenodd" image-rendering="auto" shape-rendering="auto" solid-color="#000000" style="isolation:auto;mix-blend-mode:normal"/>
  </clipPath>
  <clipPath id="i">
   <path d="m623.86-1514.1c-36.169 0.2378-107.87 12.857-131.44 40.357-33.069 38.581-10.152 85.818-23.145 109.92-16.404-3.009-35.312 8.1599-41.332 32.242-8.0812 32.325-4.1239 19.884 5.9795 46.992 0 0 25.291 15.664 36.886 16.284 12.721 63.633 38.135 173.54 141.9 185.99 142.86 17.143 203.43-62 209.14-182 0.92572-19.44 2.4544-36.146 4.1426-50.746 3.0806 1.2441 6.4882 1.9668 10.258 1.9668 28.284 0 28.284-20.203 36.365-60.609 5.1923-25.962-35.63-22.895-54.049-20.25-1.6242-17.392-8.5923-70.122-29.031-88.29-33.75-30-96.625-32.313-165.67-31.858z" color="#000000" color-rendering="auto" fill="#e8c4ac" fill-rule="evenodd" image-rendering="auto" shape-rendering="auto" solid-color="#000000" style="isolation:auto;mix-blend-mode:normal"/>
  </clipPath>
  <clipPath id="j">
   <rect x="-1143.7" y="-1563.5" width="634.53" height="1054.6" color="#000000" color-rendering="auto" fill="#2e2e2e" fill-rule="evenodd" image-rendering="auto" shape-rendering="auto" solid-color="#000000" style="isolation:auto;mix-blend-mode:normal"/>
  </clipPath>
  <clipPath id="k">
   <rect x="-408.47" y="-1563.5" width="660.79" height="1054.6" color="#000000" color-rendering="auto" fill="#2e2e2e" fill-rule="evenodd" image-rendering="auto" shape-rendering="auto" solid-color="#000000" style="isolation:auto;mix-blend-mode:normal"/>
  </clipPath>
  <clipPath id="l">
   <rect x="304.83" y="-1563.5" width="660.79" height="1054.6" color="#000000" color-rendering="auto" fill="#2e2e2e" fill-rule="evenodd" image-rendering="auto" shape-rendering="auto" solid-color="#000000" style="isolation:auto;mix-blend-mode:normal"/>
  </clipPath>
 </defs>
 <g transform="translate(1101.1 1564)">
  <g transform="matrix(.91406 0 0 .91406 4.3112 -100.42)" clip-path="url(#j)">
   <path d="m-854-1121.6c-90 56-248.47 191.94-238 402 10.125 203.17 16 224 16 224l536-4s88-570-262-612c-166.8-20.016-52-10-52-10z" color="#000000" color-rendering="auto" fill="#f4ccb2" fill-rule="evenodd" image-rendering="auto" shape-rendering="auto" solid-color="#000000" style="isolation:auto;mix-blend-mode:normal"/>
   <path d="m-878-1103.6s48 44 170-2c0 0 20.912 84.089-16 82-108 8-154-80-154-80z" color="#000000" color-rendering="auto" fill="#d9a37b" fill-rule="evenodd" image-rendering="auto" shape-rendering="auto" solid-color="#000000" style="isolation:auto;mix-blend-mode:normal"/>
   <path d="m-826.56-1500.3c-36.169 0.2378-69.868 10.857-93.439 38.357-33.069 38.581-48.152 87.818-61.145 111.92-16.404-3.009-39.311-1.8401-45.332 22.242-8.0812 32.325-16.082 66.689 0.08 62.648 8.7149-2.1788 31.191 16.007 42.785 16.627 12.721 63.633 34.135 145.54 137.9 157.99 142.86 17.143 211.43-40 217.14-160 0.92572-19.44 2.4544-36.146 4.1426-50.746 3.0806 1.2441 6.4882 1.9668 10.258 1.9668 28.284 0 28.284-20.203 36.365-60.609 5.1923-25.962-19.63-26.895-38.049-24.25-1.6242-17.392-9.4207-31.051-29.859-49.219-33.75-30-111.8-67.384-180.85-66.93z" color="#000000" color-rendering="auto" fill="#f4ccb2" fill-rule="evenodd" image-rendering="auto" shape-rendering="auto" solid-color="#000000" style="isolation:auto;mix-blend-mode:normal"/>
   <path d="m-932.55-1288.5c-2e-3 8.0989 12 15.425 18.773 19.992a20.203 20.203 0 0 0 -0.0703 1.3809 20.203 20.203 0 0 0 0.39649 3.8847c-4.0195-0.5008-10.305-4.3448-19.119-16.096-0.5931 23.284 31.596 31.082 31.596 31.082l2e-3 -0.066a20.203 20.203 0 0 0 7.3281 1.3964 20.203 20.203 0 0 0 20.203 -20.201 20.203 20.203 0 0 0 -20.203 -20.203 20.203 20.203 0 0 0 -15.191 6.9102c-6.2526 0.9176-15.957 0.5-23.715-8.0801z" color="#000000" color-rendering="auto" fill-rule="evenodd" image-rendering="auto" shape-rendering="auto" solid-color="#000000" style="isolation:auto;mix-blend-mode:normal"/>
   <path d="m-653.16-1339.9c-4.1227 0.056-201.62 14.14-201.62 14.14-12.48-8.0774 135.03-41.13 135.03-41.13l-197.1 25.479 138.92-40.212s-143.95 27.26-179.76 62.791c-22.51 22.332-10.607 48.33-10.607 48.33l-11.903-25.997-3.9595-13.092c-16.336-7.2893 17.963 102.43 17.963 102.43s-69.965-77.318-66.168-66.946c10.349 28.269 45.833 111.89 45.833 111.89l-30.797-45.408c-36.789-54.242-32.771 74.195-33.8 69.843l-3.0881-13.056s-8.2117-133.53-12.049-130.32c-3.8374 3.2054-33.382 17.91-33.382 17.91l70.137-90.882s-49.496 45.222-48.304 40.367c6.6849-27.24 29.134-70.45 29.134-70.45 12.612-22.288 53.681-50.803 53.681-50.803l50.814-25.847-90.469 33.149 95.482-65.445s146.98-45.932 225.92 15.817c78.943 61.75 110.95 61.072 116.84 101.5s49.105 79.377 49.105 79.377-32.803-22.112-31.774-17.76c1.0294 4.3521 17.566 43.179 17.566 43.179l-19.523-8.7093-16.797 66.932s-0.04-56.516-3.0778-47.985c-3.0373 8.5308-21.221 116.23-21.221 116.23l-4.5855-176.76-1.5949-28.115-29.501 42.364z" clip-path="url(#g)" color="#000000" color-rendering="auto" fill="#deb08d" fill-rule="evenodd" image-rendering="auto" shape-rendering="auto" solid-color="#000000" style="isolation:auto;mix-blend-mode:normal"/>
   <path d="m-683.96-1288.5c2e-3 8.0989-12 15.425-18.773 19.992a20.203 20.203 0 0 1 0.0703 1.3809 20.203 20.203 0 0 1 -0.39649 3.8847c4.0195-0.5008 10.305-4.3448 19.119-16.096 0.5931 23.284-31.596 31.082-31.596 31.082l-2e-3 -0.066a20.203 20.203 0 0 1 -7.3281 1.3964 20.203 20.203 0 0 1 -20.203 -20.201 20.203 20.203 0 0 1 20.203 -20.203 20.203 20.203 0 0 1 15.191 6.9102c6.2526 0.9176 15.957 0.5 23.715-8.0801z" color="#000000" color-rendering="auto" fill-rule="evenodd" image-rendering="auto" shape-rendering="auto" solid-color="#000000" style="isolation:auto;mix-blend-mode:normal"/>
   <path d="m-654.58-1382.3c-4.1227 0.056-201.62 14.14-201.62 14.14-12.48-8.0774 135.03-41.13 135.03-41.13l-197.1 25.479 138.92-40.212s-143.95 27.26-179.76 62.791c-22.51 22.332-10.607 48.33-10.607 48.33l-11.903-25.997-3.9595-13.092c-16.336-7.2893 17.963 102.43 17.963 102.43s-69.965-77.318-66.168-66.946c10.349 28.269 45.833 111.89 45.833 111.89l-30.797-45.408c-36.789-54.242-32.771 74.195-33.8 69.843l-3.0881-13.056s-8.2117-133.53-12.049-130.32c-3.8374 3.2054-33.382 17.91-33.382 17.91l70.137-90.882s-49.496 45.222-48.304 40.367c6.6849-27.24 29.134-70.45 29.134-70.45 12.612-22.288 53.681-50.803 53.681-50.803l50.814-25.847-90.469 33.149 95.482-65.445s146.98-45.932 225.92 15.817c78.943 61.75 110.95 61.072 116.84 101.5s49.105 79.377 49.105 79.377-32.803-22.112-31.774-17.76c1.0294 4.3521 17.566 43.179 17.566 43.179l-19.523-8.7093-16.797 66.932s-0.04-56.516-3.0778-47.985c-3.0373 8.5308-21.221 116.23-21.221 116.23l-4.5855-176.76-1.5949-28.115-29.501 42.364z" color="#000000" color-rendering="auto" fill="#43a5f8" fill-rule="evenodd" image-rendering="auto" shape-rendering="auto" solid-color="#000000" style="isolation:auto;mix-blend-mode:normal"/>
   <path d="m-860.29-1316.4-1.5302 20.968s-56.908-25.328-77.435-9.3708c-20.527 15.957-18.787 16.942-18.787 16.942s14.508-64.183 97.752-28.54z" color="#000000" color-rendering="auto" fill="#4d4d4d" fill-rule="evenodd" image-rendering="auto" shape-rendering="auto" solid-color="#000000" style="isolation:auto;mix-blend-mode:normal"/>
   <path d="m-750.96-1326.6-0.5224 21.017s59.107-19.656 77.98-1.773 17.045 18.694 17.045 18.694-8.1786-65.292-94.502-37.939z" color="#000000" color-rendering="auto" fill="#4d4d4d" fill-rule="evenodd" image-rendering="auto" shape-rendering="auto" solid-color="#000000" style="isolation:auto;mix-blend-mode:normal"/>
   <g transform="matrix(.83403 0 0 1.0595 -129.68 83.303)" fill-rule="evenodd" shape-rendering="auto">
    <path d="m-857-1179.6c2.7454-0.4987 41.192-26.563 53.82-28.857s17.75 3.1363 17.75 3.1363 5.6811-13.753 20.136-10.018c14.455 3.7346 49.435 5.5588 49.435 5.5588 9.216 0.93-141.14 30.18-141.14 30.18z" color="#000000" color-rendering="auto" fill="#d9a37b" image-rendering="auto" solid-color="#000000" style="isolation:auto;mix-blend-mode:normal"/>
    <path d="m-882.47-1175s127.28 14.142 149.91-12.728c22.627-26.87 21.213-19.799 21.213-19.799" color="#000000" color-rendering="auto" image-rendering="auto" solid-color="#000000" style="isolation:auto;mix-blend-mode:normal"/>
    <path d="m-719.83-1200.5 12.728-24.042 2.8284 25.456z" color="#000000" color-rendering="auto" image-rendering="auto" solid-color="#000000" style="isolation:auto;mix-blend-mode:normal"/>
   </g>
   <path d="m-1028-831.64c-4 8-26 336-26 336 0.021 0.0522 101.02 8.2044 88-10 0 0 20-298 12-300s-74-26-74-26z" color="#000000" color-rendering="auto" fill="#d9a37b" fill-rule="evenodd" image-rendering="auto" shape-rendering="auto" solid-color="#000000" style="isolation:auto;mix-blend-mode:normal"/>
   <path d="m-584-839.64 28 338h-70l-24-302z" color="#000000" color-rendering="auto" fill="#d9a37b" fill-rule="evenodd" image-rendering="auto" shape-rendering="auto" solid-color="#000000" style="isolation:auto;mix-blend-mode:normal"/>
   <path d="m-894-1099.6s-82 22-116 68-84 162-84 162l102 80s-28 216-32 258-2 38-2 38l452-4-54-306s110-78 100-78-42-176-134-210c-60.149-22.229-50-12-50-12s-13.977 83.283-90 84c-72.142 0.6805-92-80-92-80z" color="#000000" color-rendering="auto" fill="#1a1a1a" fill-rule="evenodd" image-rendering="auto" shape-rendering="auto" solid-color="#000000" style="isolation:auto;mix-blend-mode:normal"/>
   <circle cx="-800" cy="-811.64" r="76" color="#000000" color-rendering="auto" fill="#43a5f8" fill-rule="evenodd" image-rendering="auto" shape-rendering="auto" solid-color="#000000" style="isolation:auto;mix-blend-mode:normal"/>
   <path d="m-788.86-792.49-36.845-9.8725-36.845-9.8725 26.972-26.972 26.972-26.972 9.8725 36.845z" color="#000000" color-rendering="auto" fill="#fff" fill-rule="evenodd" image-rendering="auto" shape-rendering="auto" solid-color="#000000" style="isolation:auto;mix-blend-mode:normal"/>
   <path d="m-758.86-764.49-20.283-5.4347-20.283-5.4347 14.848-14.848 14.848-14.848 5.4347 20.283z" color="#000000" color-rendering="auto" fill="#fff" fill-rule="evenodd" image-rendering="auto" shape-rendering="auto" solid-color="#000000" style="isolation:auto;mix-blend-mode:normal"/>
   <g transform="matrix(.77313 0 0 -.77313 -913.36 -510.33)">
    <path d="m-23.325 1119.1q-1.9392-8.2307-8.8061-12.479-6.8669-4.2481-15.098-2.3089-9.497 2.2376-14.874 10.93l-41.799 67.469q-6.0433 9.963-3.4576 20.937 2.6354 11.185 12.213 17.171 9.5781 5.9854 20.763 3.3501 11.115-2.6188 17.332-12.474l32.516-52.659q0.53775-0.8692 0.33886-1.7134-0.2652-1.1256-2.9164-2.7657-2.6511-1.64-3.7767-1.3748-0.91453 0.2155-1.4523 1.0846l-32.57 52.746q-4.2813 6.7261-11.457 8.4167-7.4569 1.7569-13.835-2.3092-6.3785-4.0662-8.1354-11.523-1.7403-7.3865 2.3464-13.993l41.712-67.522q3.3877-5.4762 9.1563-6.8353 4.5023-1.0608 8.153 1.1977 3.6508 2.2585 4.7115 6.7608 1.3591 5.7685-2.0286 11.245l-31.242 50.502q-1.4313 2.1193-3.8231 2.6829-2.0401 0.4806-3.6916-0.5411-1.6515-1.0216-2.1322-3.0618-0.53039-2.2511 0.7808-4.5649l22.047-35.638q0.53774-0.8691 0.33885-1.7133-0.2652-1.1256-2.9598-2.7926t-3.8202-1.4018q-0.84418 0.1989-1.3819 1.0681l-22.047 35.638q-3.4209 5.3355-1.9623 11.526 1.3591 5.7685 6.3137 8.8337 4.9546 3.065 10.723 1.7059 6.1906-1.4586 9.4377-6.9016l31.242-50.502q5.4105-8.5516 3.1398-18.189z" fill="currentColor"/>
   </g>
  </g>
  <g transform="matrix(.91406 0 0 .91406 4.3112 -100.42)" clip-path="url(#k)" fill-rule="evenodd" shape-rendering="auto">
   <path d="m-135.58-1135.5c-90 56-248.47 191.94-238 402 10.125 203.17 16 224 16 224l536-4s88-570-262-612c-166.8-20.016-52-10-52-10z" color="#000000" color-rendering="auto" fill="#d99e77" image-rendering="auto" solid-color="#000000" style="isolation:auto;mix-blend-mode:normal"/>
   <path d="m-172.89-1123.7s53.017 44 187.77-2c0 0 33.098 93.088-7.6723 91-119.29 8-180.1-89-180.1-89z" color="#000000" color-rendering="auto" fill="#a77651" image-rendering="auto" solid-color="#000000" style="isolation:auto;mix-blend-mode:normal"/>
   <path d="m-47.001-1058.1-8.9289 47.657 51.435-28.364z" color="#000000" color-rendering="auto" fill="#999" image-rendering="auto" solid-color="#000000" style="isolation:auto;mix-blend-mode:normal"/>
   <path d="m-110.46-1062.3 8.9289 47.657-51.435-28.364z" color="#000000" color-rendering="auto" fill="#999" image-rendering="auto" solid-color="#000000" style="isolation:auto;mix-blend-mode:normal"/>
   <path d="m-167.09-1096.5s-141.84 55.682-172.77 103.8c-90 140-65.23 498.2-65.23 498.2s58.882-4.3388 120-2l438 2 66-2s69.355-327.47-32.645-487.47c-34.471-54.072-171.36-116.53-171.36-116.53s-9.9771 71.283-86 72c-72.142 0.6805-96-68-96-68z" color="#000000" color-rendering="auto" fill="#43a5f8" image-rendering="auto" solid-color="#000000" style="isolation:auto;mix-blend-mode:normal"/>
   <path d="m-223-1077.6s29.031 31.892 70 53.515c36 19 78.627 27.828 119.59 16.657 64.147-17.496 86.615-79.828 86.615-79.828l-11.201-15.343s-56.442 55.481-85 64c-30.303 9.0399-44 7-65 0-17.312-5.7706-83-60-83-60z" color="#000000" color-rendering="auto" fill="#0b79d8" image-rendering="auto" solid-color="#000000" style="isolation:auto;mix-blend-mode:normal"/>
   <path d="m63.12-1098.7c-16-18-34.192-37.808-34.192-37.808l-28.716 46.373c-8.2253 13.283-49.092 33.435-49.092 33.435s36.65 14.476 41.121 52c58.326-19.656 70.879-94 70.879-94z" color="#000000" color-rendering="auto" fill="#ececec" image-rendering="auto" solid-color="#000000" style="isolation:auto;mix-blend-mode:normal"/>
   <path d="m-232-1094.4c16-19.108 40-55.2 40-55.2l32.908 57.923c8.0686 14.202 49.092 35.493 49.092 35.493s-37.65 4.7519-42.121 44.585c-58.326-20.866-79.879-82.8-79.879-82.8z" color="#000000" color-rendering="auto" fill="#ececec" image-rendering="auto" solid-color="#000000" style="isolation:auto;mix-blend-mode:normal"/>
   <path d="m32.039-1134.4s0.46333 46.51-23.042 64.882l-35.941 28.092-19.506-15.192s35.355-20.506 45.255-35.355c9.8995-14.849 12.728-28.284 12.728-28.284z" color="#000000" color-rendering="auto" fill="#ccc" image-rendering="auto" solid-color="#000000" style="isolation:auto;mix-blend-mode:normal"/>
   <path d="m-108.14-1514.1c-36.169 0.2378-85.868 14.857-109.44 42.357-33.069 38.581-32.152 83.818-45.145 107.92-16.404-3.009-39.312-1.8401-45.332 22.242-8.0812 32.325-0.12387 29.884 9.9795 56.992 0 0 21.291 21.664 32.886 22.284 12.721 63.633 34.135 145.54 137.9 157.99 142.86 17.143 211.43-40 217.14-160 0.92572-19.44 2.4544-10.146 4.1426-24.746 3.0806 1.2441 6.4882 1.9668 10.258 1.9668 28.284 0 28.284-20.203 36.365-60.609 5.1923-25.962-35.63-22.895-54.049-20.25-1.6242-17.392-14.592-84.122-35.031-102.29-33.75-30-90.625-44.313-159.67-43.858z" color="#000000" color-rendering="auto" fill="#d99e77" image-rendering="auto" solid-color="#000000" style="isolation:auto;mix-blend-mode:normal"/>
   <circle cx="-180.78" cy="-1287.6" r="18.385" color="#000000" color-rendering="auto" image-rendering="auto" solid-color="#000000" style="isolation:auto;mix-blend-mode:normal"/>
   <circle cx="2.5858" cy="-1289" r="18.385" color="#000000" color-rendering="auto" image-rendering="auto" solid-color="#000000" style="isolation:auto;mix-blend-mode:normal"/>
   <path d="m-311-904.64-32 408h70l-8-314z" color="#000000" color-rendering="auto" fill="#2596f7" image-rendering="auto" solid-color="#000000" style="isolation:auto;mix-blend-mode:normal"/>
   <path d="m-314-919.64c52.548 198.85 28.302 424.03 28.302 424.03l18.396 1.9722s15.376-346.77-46.698-426z" color="#000000" color-rendering="auto" fill="#0976d3" image-rendering="auto" solid-color="#000000" style="isolation:auto;mix-blend-mode:normal"/>
   <path d="m-202.94-1133.7s12.007 49.454 36.184 66.932l31.941 23.092 28.506-12.192s-45.012-29.042-54.912-43.891c-9.8995-14.849-8.4853-14.849-8.4853-14.849z" color="#000000" color-rendering="auto" fill="#ccc" image-rendering="auto" solid-color="#000000" style="isolation:auto;mix-blend-mode:normal"/>
   <path d="m139-906.64 32 408h-70l8-314z" color="#000000" color-rendering="auto" fill="#2596f7" image-rendering="auto" solid-color="#000000" style="isolation:auto;mix-blend-mode:normal"/>
   <path d="m138.39-911.64c-52.548 192.31-28.302 410.09-28.302 410.09l-18.396 1.9074s-15.376-335.37 46.698-412z" color="#000000" color-rendering="auto" fill="#0976d3" image-rendering="auto" solid-color="#000000" style="isolation:auto;mix-blend-mode:normal"/>
   <path d="m-266.24-1261.1s-3.7574-100.53-5.7574-146.53 3.4142-61.858 21.414-91.858 68.586-58.142 98.586-62.142 118-4 146 8 66 34 78 54 17.899 151.92 12.243 204.59c-0.32037 2.9828-8.2095-60.26-26.418-83.684-18.021-23.184 7.8322-59.659-2.1678-62.659-20-6-69.314 22.243-151.31 14.243-82-8-135.66-23.757-139.66-11.757s13.758 45.087 0.97056 54.059c-31.213 21.9-31.899 123.74-31.899 123.74z" color="#000000" color-rendering="auto" image-rendering="auto" solid-color="#000000" style="isolation:auto;mix-blend-mode:normal"/>
   <path d="m-134.64-1330.1-0.52012 35.419s-12.744-20.144-35.966-25.36c-23.223-5.2154-51.751 8.705-51.751 8.705-15.812-4.3469 29.378-40.599 55.971-30.614s32.266 11.849 32.266 11.849z" color="#000000" color-rendering="auto" image-rendering="auto" solid-color="#000000" style="isolation:auto;mix-blend-mode:normal"/>
   <path d="m-39.68-1344.3 0.52012 35.419s12.744-20.144 35.966-25.36c23.223-5.2154 51.751 8.705 51.751 8.705 15.812-4.3469-29.378-40.599-55.971-30.614s-32.266 11.849-32.266 11.849z" color="#000000" color-rendering="auto" image-rendering="auto" solid-color="#000000" style="isolation:auto;mix-blend-mode:normal"/>
   <path d="m-154.88-1204.8s-1.7347 0.7941 29.317-1.6849c31.052-2.4792 33.097 8.3355 42.767 9.1138 9.6699 0.7784 20.491-3.8148 31.581-1.9554s32.435 4.5133 32.435 4.5133c-38.906 21.388-90.983 15.687-136.1-9.9868z" color="#000000" color-rendering="auto" fill="#a76e4a" image-rendering="auto" solid-color="#000000" style="isolation:auto;mix-blend-mode:normal"/>
   <path d="m-157.37-1205.2s71.515 37.756 136.46 8.5637c0 0 6.0784 3.5858-1.1716-18.914 6.7567 2.7024 19.578 23.371 19.578 23.371l-11.657-4.1139s-64.324 67.277-143.21-8.9069z" color="#000000" color-rendering="auto" image-rendering="auto" solid-color="#000000" style="isolation:auto;mix-blend-mode:normal"/>
  </g>
  <g transform="matrix(.91406 0 0 .91406 4.3112 -100.42)" clip-path="url(#l)">
   <g shape-rendering="auto">
    <path d="m596.42-1135.5c-90 56-248.47 191.94-238 402 10.125 203.17 30 234 30 234l508-6s102-578-248-620c-166.8-20.016-52-10-52-10z" color="#000000" color-rendering="auto" fill="#e8c4ac" fill-rule="evenodd" image-rendering="auto" solid-color="#000000" style="isolation:auto;mix-blend-mode:normal"/>
    <path d="m559.11-1123.7s53.017 44 187.77-2c0 0 33.098 93.088-7.6723 91-119.29 8-180.1-89-180.1-89z" color="#000000" color-rendering="auto" fill="#cea286" fill-rule="evenodd" image-rendering="auto" solid-color="#000000" style="isolation:auto;mix-blend-mode:normal"/>
    <path d="m685-1058.1-8.9289 47.657 51.435-28.364z" color="#000000" color-rendering="auto" fill="#999" fill-rule="evenodd" image-rendering="auto" solid-color="#000000" style="isolation:auto;mix-blend-mode:normal"/>
    <path d="m866.74-914.97 4.4244 409.23-69.841-4.7186 29.148-312.75z" color="#000000" color-rendering="auto" fill="#cea286" fill-rule="evenodd" image-rendering="auto" solid-color="#000000" style="isolation:auto;mix-blend-mode:normal"/>
    <path d="m421.75-906.97-4.4244 409.23 69.841-4.7186-29.148-312.75z" color="#000000" color-rendering="auto" fill="#cea286" fill-rule="evenodd" image-rendering="auto" solid-color="#000000" style="isolation:auto;mix-blend-mode:normal"/>
    <path d="m560-1113.6s-74.047 29.116-116 68c-82 76-76 174-76 174l94 68s-4 150-8 192 32 104 32 104 275.32 15.964 334-2c48.675-123.96 4-310 4-310 42.177-5.2014 96-28 86-28s18-194-122-236c-61.42-18.426-46-34-46-34s-13.977 83.283-90 84c-72.142 0.6805-92-80-92-80z" color="#000000" color-rendering="auto" fill="#4d4d4d" fill-rule="evenodd" image-rendering="auto" solid-color="#000000" style="isolation:auto;mix-blend-mode:normal"/>
    <path d="m795.12-1098.7c-16-18-34.192-37.808-34.192-37.808l-28.716 46.373c-8.2253 13.283-49.092 33.435-49.092 33.435s36.65 14.476 41.121 52c58.326-19.656 70.879-94 70.879-94z" color="#000000" color-rendering="auto" fill="#ececec" fill-rule="evenodd" image-rendering="auto" solid-color="#000000" style="isolation:auto;mix-blend-mode:normal"/>
    <path d="m623.86-1514.1c-36.169 0.2378-107.87 12.857-131.44 40.357-33.069 38.581-10.152 85.818-23.145 109.92-16.404-3.009-35.312 8.1599-41.332 32.242-8.0812 32.325-4.1239 19.884 5.9795 46.992 0 0 25.291 15.664 36.886 16.284 12.721 63.633 38.135 173.54 141.9 185.99 142.86 17.143 193.53-54.929 206.31-169.27 2.1627-19.342 2.8284-12.728 6.971-29.474 3.0806 1.2441 12.666 3.878 15.915 1.9668 0 0 14.627-6.2033 22.708-46.609 5.1923-25.962-27.63-36.895-46.049-34.25-1.6242-17.392-8.5923-104.12-29.031-122.29-33.75-30-96.625-32.313-165.67-31.858z" color="#000000" color-rendering="auto" fill="#e8c4ac" fill-rule="evenodd" image-rendering="auto" solid-color="#000000" style="isolation:auto;mix-blend-mode:normal"/>
    <path d="m488-1259.6s12 85.962 44 89.962 51.636-56.184 65.636-52.184 35.657 21.293 55.657 15.293 36-22.464 54-14.464 22 60.749 50 54.749 50.322-90.849 50.322-90.849 3.6569 98.523-22.243 122.67c-13.802 12.865-89.373 64.828-107.37 64.828s-110-22-132-32-50-54-54-68-4-90-4-90z" clip-path="url(#i)" color="#000000" color-rendering="auto" fill="#b89c8a" fill-rule="evenodd" image-rendering="auto" solid-color="#000000" style="isolation:auto;mix-blend-mode:normal"/>
    <circle cx="567.99" cy="-1283.7" r="16.459" color="#000000" color-rendering="auto" fill-rule="evenodd" image-rendering="auto" solid-color="#000000" style="isolation:auto;mix-blend-mode:normal"/>
    <circle cx="725.82" cy="-1283" r="16.459" color="#000000" color-rendering="auto" fill-rule="evenodd" image-rendering="auto" solid-color="#000000" style="isolation:auto;mix-blend-mode:normal"/>
    <path d="m612.35-1035 43.841 530.37-83.439-0.037z" color="#000000" color-rendering="auto" fill="#2e2e2e" fill-rule="evenodd" image-rendering="auto" solid-color="#000000" style="isolation:auto;mix-blend-mode:normal"/>
    <path d="m510-1091.6c-8 2-32 2-52 22s-32 36-32 36l32 146s-30 38-6 60-20 56 0 82-40 36-12 72-26 44-8 78-24 54 6 78 178 14 178 14l-4-540-20-54-72-40s-24 12-18 24 8 22 8 22z" color="#000000" color-rendering="auto" fill="#43a5f8" fill-rule="evenodd" image-rendering="auto" solid-color="#000000" style="isolation:auto;mix-blend-mode:normal"/>
    <path d="m789-1084.6s23-3 43 17 32 36 32 36l-32 146s30 38 6 60 20 56 0 82 40 36 12 72 26 44 8 78 24 54-6 78-178 14-178 14l4-540 20-54 72-40s29.617 13.08 26 26l-7 25z" color="#000000" color-rendering="auto" fill="#43a5f8" fill-rule="evenodd" image-rendering="auto" solid-color="#000000" style="isolation:auto;mix-blend-mode:normal"/>
    <path d="m458-889.64 100 16s-94-24-108-62-9-115-9-115l-18 17z" color="#000000" color-rendering="auto" fill="#0976d3" fill-rule="evenodd" image-rendering="auto" solid-color="#000000" style="isolation:auto;mix-blend-mode:normal"/>
    <path d="m442-846.64c16 47 111.54 47.414 111.54 47.414-61.455 3.4249-95.544-0.41421-95.544-0.41421l-16-47z" color="#000000" color-rendering="auto" fill="#0976d3" fill-rule="evenodd" image-rendering="auto" solid-color="#000000" style="isolation:auto;mix-blend-mode:normal"/>
    <path d="m446-757.64 103.86 26.142s-79.858 5.8579-89.858-0.14214-14-26-14-26z" color="#000000" color-rendering="auto" fill="#0976d3" fill-rule="evenodd" image-rendering="auto" solid-color="#000000" style="isolation:auto;mix-blend-mode:normal"/>
    <path d="m431.51-684.81 106 35.899s-81.172 1.2721-89.172-6.7279-16.828-29.172-16.828-29.172z" color="#000000" color-rendering="auto" fill="#0976d3" fill-rule="evenodd" image-rendering="auto" solid-color="#000000" style="isolation:auto;mix-blend-mode:normal"/>
    <path d="m427.76-609.05s37.675 26.132 91.657 41.556c40.444 11.556-82.243-8.1421-82.243-8.1421z" color="#000000" color-rendering="auto" fill="#0976d3" fill-rule="evenodd" image-rendering="auto" solid-color="#000000" style="isolation:auto;mix-blend-mode:normal"/>
    <path d="m721-1068.4s-37 25.088-39 53.075c-3.0641 42.878 2 91.662 2 91.662s3-48.938 46-100.71c47.869-57.638 61-62.3 61-62.3l-1-2.9875z" color="#000000" color-rendering="auto" fill="#0976d3" fill-rule="evenodd" image-rendering="auto" solid-color="#000000" style="isolation:auto;mix-blend-mode:normal"/>
    <path d="m506-1093.6c7.6142 4 47.588 18 66.624 76 19.035 58 32.65 94 32.65 94s7.3248-106-7.9035-128c-15.228-22-91.37-42-91.37-42z" color="#000000" color-rendering="auto" fill="#0976d3" fill-rule="evenodd" image-rendering="auto" solid-color="#000000" style="isolation:auto;mix-blend-mode:normal"/>
    <path d="m864-1032.6s-54.651 156.75-100 171l79-12 10.5-79.5z" color="#000000" color-rendering="auto" fill="#0976d3" fill-rule="evenodd" image-rendering="auto" solid-color="#000000" style="isolation:auto;mix-blend-mode:normal"/>
    <path d="m846-834.64s-60 37-94 41 74-6 74-6z" color="#000000" color-rendering="auto" fill="#0976d3" fill-rule="evenodd" image-rendering="auto" solid-color="#000000" style="isolation:auto;mix-blend-mode:normal"/>
    <path d="m844-759.64-86 46c-28.437 15.21 80.243-6 80.243-6z" color="#000000" color-rendering="auto" fill="#0976d3" fill-rule="evenodd" image-rendering="auto" solid-color="#000000" style="isolation:auto;mix-blend-mode:normal"/>
    <path d="m842-661.64c-8 2-59.958 15.515-90 22-6.1821 1.3346 94 6 94 6z" color="#000000" color-rendering="auto" fill="#0976d3" fill-rule="evenodd" image-rendering="auto" solid-color="#000000" style="isolation:auto;mix-blend-mode:normal"/>
    <path d="m858-595.64s-30 28-68 26 64 8 64 8z" color="#000000" color-rendering="auto" fill="#0976d3" fill-rule="evenodd" image-rendering="auto" solid-color="#000000" style="isolation:auto;mix-blend-mode:normal"/>
    <circle cx="763.85" cy="-920.33" r="26.154" color="#000000" color-rendering="auto" fill="#0976d3" fill-rule="evenodd" image-rendering="auto" solid-color="#000000" style="isolation:auto;mix-blend-mode:normal"/>
    <g transform="matrix(.7317 0 0 .7317 203.95 -247.18)" fill="#fff" fill-rule="evenodd">
     <path transform="matrix(.80299 0 0 .77547 149.41 -207.82)" d="m768.56-912.23-15.588-4.1768-15.588-4.1768 11.411-11.411 11.411-11.411 4.1768 15.588z" color="#000000" color-rendering="auto" image-rendering="auto" solid-color="#000000" style="isolation:auto;mix-blend-mode:normal"/>
     <path d="m779.25-899.38-10.081-2.7012-10.081-2.7012 7.3798-7.3798 7.3799-7.3799 2.7012 10.081z" color="#000000" color-rendering="auto" image-rendering="auto" solid-color="#000000" style="isolation:auto;mix-blend-mode:normal"/>
     <path d="m786.25-922.38-10.398-2.7862-10.398-2.7862 7.6119-7.6119 7.6119-7.6119 2.7862 10.398z" color="#000000" color-rendering="auto" image-rendering="auto" solid-color="#000000" style="isolation:auto;mix-blend-mode:normal"/>
    </g>
    <path d="m602.57-1329.6 8.244 12.745s-21.761 0.2894-47.356-3.649c-25.595-3.9383-51.527 5.0731-51.527 5.0731-17.427-3.2823 32.379-30.656 61.689-23.117 29.31 7.5397 28.949 8.9474 28.949 8.9474z" color="#000000" color-rendering="auto" fill="#5a524d" fill-rule="evenodd" image-rendering="auto" solid-color="#000000" style="isolation:auto;mix-blend-mode:normal"/>
    <rect x="510.33" y="-1309.3" width="99.338" height="53.338" ry="10.751" color="#000000" color-rendering="auto" fill="none" image-rendering="auto" solid-color="#000000" stroke="#1a1a1a" stroke-linecap="round" stroke-width="8.8624" style="isolation:auto;mix-blend-mode:normal"/>
    <rect x="674.25" y="-1311.4" width="95.498" height="53.498" ry="10.783" color="#000000" color-rendering="auto" fill="none" image-rendering="auto" solid-color="#000000" stroke="#1a1a1a" stroke-linecap="round" stroke-width="8.7024" style="isolation:auto;mix-blend-mode:normal"/>
    <rect x="610.73" y="-1302.9" width="62.538" height="8.5381" color="#000000" color-rendering="auto" fill-rule="evenodd" image-rendering="auto" solid-color="#000000" style="isolation:auto;mix-blend-mode:normal"/>
    <path transform="translate(-2)" d="m480-1265.6s25.172-112.59 11.172-150.59c-14.667-39.81-43.678-104.85 80.828-73.414 40.769 10.292 74 26 74 26 61.64-31.185 129.92-35.238 150-10 35 44-20.627 142.02 18 200.49 9.8606 14.925 8-120.49 8-120.49s26-78-18-108-204-76-250-54-91.757 77.757-95.757 91.757 21.757 198.24 21.757 198.24z" clip-path="url(#h)" color="#000000" color-rendering="auto" fill="#b89c8a" fill-rule="evenodd" image-rendering="auto" solid-color="#000000" style="isolation:auto;mix-blend-mode:normal"/>
    <path d="m762-1309.6 60-56v12l-52 56z" color="#000000" color-rendering="auto" fill-rule="evenodd" image-rendering="auto" solid-color="#000000" style="isolation:auto;mix-blend-mode:normal"/>
    <path d="m576-1187.6s116.13 27.219 120 4l-4.4853-11.979 24.343 19.979-18.222-2.1213s-65.636 50.121-121.64-9.8787z" color="#000000" color-rendering="auto" fill-rule="evenodd" image-rendering="auto" solid-color="#000000" style="isolation:auto;mix-blend-mode:normal"/>
    <path d="m578.57-1187.8s15.903 5.2168 37.867 3.3151c22.618-1.9583 17.962 13.495 34.182 6.0636 13.209-6.0521 16.284-1.4006 27.374 0.4588s16.379-2.7085 16.379-2.7085c-14.379 13.708-95.684 11.545-115.8-7.129z" color="#000000" color-rendering="auto" fill="#e4b89b" fill-rule="evenodd" image-rendering="auto" solid-color="#000000" style="isolation:auto;mix-blend-mode:normal"/>
    <path d="m678.06-1339.6-8.244 12.745s21.761 0.2894 47.356-3.649c25.595-3.9383 51.527 5.0731 51.527 5.0731 17.427-3.2823-32.379-30.656-61.689-23.117-29.31 7.5397-28.949 8.9474-28.949 8.9474z" color="#000000" color-rendering="auto" fill="#5a524d" fill-rule="evenodd" image-rendering="auto" solid-color="#000000" style="isolation:auto;mix-blend-mode:normal"/>
    <path d="m517-1309.1-46-62.5-5 7.5 43 67z" color="#000000" color-rendering="auto" fill-rule="evenodd" image-rendering="auto" solid-color="#000000" style="isolation:auto;mix-blend-mode:normal"/>
   </g>
  </g>
 </g>
</svg>
