<?xml version="1.0" encoding="UTF-8"?>
<svg viewBox="0 0 744.09448819 1052.3622047" xmlns="http://www.w3.org/2000/svg">
 <defs>
  <radialGradient id="a" cx="351.57" cy="431.36" r="138.71" gradientTransform="matrix(1.1005 -.28119 .12968 .50751 -129.85 262.09)" gradientUnits="userSpaceOnUse">
   <stop stop-color="#fff" offset="0"/>
   <stop stop-color="#fff" stop-opacity="0" offset="1"/>
  </radialGradient>
 </defs>
 <g transform="translate(171.78 -1.0399)" fill-rule="evenodd">
  <path d="m272.55 225.47c-38.573 13.632-86.987 118.64-96.833 188.72 3.223 0.95097 17.834 11.485 27.931 17.755 36.098-31.768 76.664-68.055 197.78-53.953 77.382 9.0103 75.025-139.58 10.887-157.56-45.334-12.703-101.19-8.5968-139.76 5.035z" fill="#5ba8cb"/>
  <path d="m340.91 283.54c-15.982-0.00775-31.271 2.4261-50.875 7.6562-34.442 9.1888-90.085 43.336-109.78 99-1.9247 8.2974-3.4902 16.337-4.5625 23.969 3.223 0.95096 17.84 11.511 27.938 17.781 6.6428-5.8461 13.455-11.846 20.875-17.656 1.2552-0.98288 2.5192-1.9671 3.8125-2.9375 0.14668-0.11051 0.2903-0.23344 0.4375-0.34375 0.50028-0.37338 1.0248-0.72262 1.5312-1.0938 0.8063-0.59321 1.6146-1.1946 2.4375-1.7812 1.3437-0.95794 2.7332-1.906 4.125-2.8438 1.2209-0.8198 2.4576-1.6352 3.7188-2.4375l0.125-0.0625c0.64518-0.40972 1.3124-0.81406 1.9688-1.2188 0.93436-0.57733 1.8543-1.1839 2.8125-1.75 0.0842-0.04968 0.16561-0.10666 0.25-0.15625 1.4349-0.84433 2.9143-1.6521 4.4062-2.4688 1.3456-0.7362 2.7304-1.4755 4.125-2.1875l0.5625-0.28125c0.2757-0.13939 0.56607-0.26785 0.84375-0.40625 1.3625-0.67795 2.7126-1.379 4.125-2.0312 0.37012-0.17148 0.75138-0.33034 1.125-0.5 0.36493-0.16511 0.72539-0.33669 1.0938-0.5 0.75669-0.33686 1.5412-0.63953 2.3125-0.96875l0.875-0.375c0.61216-0.25709 1.2222-0.52912 1.8438-0.78125 0.09402-0.0379 0.18701-0.08722 0.28125-0.125 0.81404-0.32844 1.6383-0.61783 2.4688-0.9375 0.28212-0.10784 0.55968-0.23696 0.84375-0.34375 0.3591-0.13596 0.73155-0.27197 1.0938-0.40625l1.75-0.625 1.9688-0.6875c29.31-10.098 68.596-14.743 125.97-8.0625 24.673 2.8729 41.208-10.295 50.25-30.125 0.33695-22.47-20.573-50.066-55.781-57.281-22.311-4.5724-38.986-7.0235-54.969-7.0312z" fill="url(#a)" opacity=".5"/>
 </g>
 <g transform="matrix(0 1 -1 0 789.64 255.26)" fill-rule="evenodd">
  <path d="m272.55 225.47c-38.573 13.632-86.987 118.64-96.833 188.72 3.223 0.95097 17.834 11.485 27.931 17.755 36.098-31.768 76.664-68.055 197.78-53.953 77.382 9.0103 75.025-139.58 10.887-157.56-45.334-12.703-101.19-8.5968-139.76 5.035z" fill="#5ba8cb"/>
  <path d="m340.91 283.54c-15.982-0.00775-31.271 2.4261-50.875 7.6562-34.442 9.1888-90.085 43.336-109.78 99-1.9247 8.2974-3.4902 16.337-4.5625 23.969 3.223 0.95096 17.84 11.511 27.938 17.781 6.6428-5.8461 13.455-11.846 20.875-17.656 1.2552-0.98288 2.5192-1.9671 3.8125-2.9375 0.14668-0.11051 0.2903-0.23344 0.4375-0.34375 0.50028-0.37338 1.0248-0.72262 1.5312-1.0938 0.8063-0.59321 1.6146-1.1946 2.4375-1.7812 1.3437-0.95794 2.7332-1.906 4.125-2.8438 1.2209-0.8198 2.4576-1.6352 3.7188-2.4375l0.125-0.0625c0.64518-0.40972 1.3124-0.81406 1.9688-1.2188 0.93436-0.57733 1.8543-1.1839 2.8125-1.75 0.0842-0.04968 0.16561-0.10666 0.25-0.15625 1.4349-0.84433 2.9143-1.6521 4.4062-2.4688 1.3456-0.7362 2.7304-1.4755 4.125-2.1875l0.5625-0.28125c0.2757-0.13939 0.56607-0.26785 0.84375-0.40625 1.3625-0.67795 2.7126-1.379 4.125-2.0312 0.37012-0.17148 0.75138-0.33034 1.125-0.5 0.36493-0.16511 0.72539-0.33669 1.0938-0.5 0.75669-0.33686 1.5412-0.63953 2.3125-0.96875l0.875-0.375c0.61216-0.25709 1.2222-0.52912 1.8438-0.78125 0.09402-0.0379 0.18701-0.08722 0.28125-0.125 0.81404-0.32844 1.6383-0.61783 2.4688-0.9375 0.28212-0.10784 0.55968-0.23696 0.84375-0.34375 0.3591-0.13596 0.73155-0.27197 1.0938-0.40625l1.75-0.625 1.9688-0.6875c29.31-10.098 68.596-14.743 125.97-8.0625 24.673 2.8729 41.208-10.295 50.25-30.125 0.33695-22.47-20.573-50.066-55.781-57.281-22.311-4.5724-38.986-7.0235-54.969-7.0312z" fill="url(#a)" opacity=".5"/>
 </g>
 <g transform="matrix(-1 0 0 -1 533.24 872.82)" fill-rule="evenodd">
  <path d="m272.55 225.47c-38.573 13.632-86.987 118.64-96.833 188.72 3.223 0.95097 17.834 11.485 27.931 17.755 36.098-31.768 76.664-68.055 197.78-53.953 77.382 9.0103 75.025-139.58 10.887-157.56-45.334-12.703-101.19-8.5968-139.76 5.035z" fill="#5ba8cb"/>
  <path d="m340.91 283.54c-15.982-0.00775-31.271 2.4261-50.875 7.6562-34.442 9.1888-90.085 43.336-109.78 99-1.9247 8.2974-3.4902 16.337-4.5625 23.969 3.223 0.95096 17.84 11.511 27.938 17.781 6.6428-5.8461 13.455-11.846 20.875-17.656 1.2552-0.98288 2.5192-1.9671 3.8125-2.9375 0.14668-0.11051 0.2903-0.23344 0.4375-0.34375 0.50028-0.37338 1.0248-0.72262 1.5312-1.0938 0.8063-0.59321 1.6146-1.1946 2.4375-1.7812 1.3437-0.95794 2.7332-1.906 4.125-2.8438 1.2209-0.8198 2.4576-1.6352 3.7188-2.4375l0.125-0.0625c0.64518-0.40972 1.3124-0.81406 1.9688-1.2188 0.93436-0.57733 1.8543-1.1839 2.8125-1.75 0.0842-0.04968 0.16561-0.10666 0.25-0.15625 1.4349-0.84433 2.9143-1.6521 4.4062-2.4688 1.3456-0.7362 2.7304-1.4755 4.125-2.1875l0.5625-0.28125c0.2757-0.13939 0.56607-0.26785 0.84375-0.40625 1.3625-0.67795 2.7126-1.379 4.125-2.0312 0.37012-0.17148 0.75138-0.33034 1.125-0.5 0.36493-0.16511 0.72539-0.33669 1.0938-0.5 0.75669-0.33686 1.5412-0.63953 2.3125-0.96875l0.875-0.375c0.61216-0.25709 1.2222-0.52912 1.8438-0.78125 0.09402-0.0379 0.18701-0.08722 0.28125-0.125 0.81404-0.32844 1.6383-0.61783 2.4688-0.9375 0.28212-0.10784 0.55968-0.23696 0.84375-0.34375 0.3591-0.13596 0.73155-0.27197 1.0938-0.40625l1.75-0.625 1.9688-0.6875c29.31-10.098 68.596-14.743 125.97-8.0625 24.673 2.8729 41.208-10.295 50.25-30.125 0.33695-22.47-20.573-50.066-55.781-57.281-22.311-4.5724-38.986-7.0235-54.969-7.0312z" fill="url(#a)" opacity=".5"/>
 </g>
 <g transform="matrix(0 -1 1 0 -84.51 616.66)" fill-rule="evenodd">
  <path d="m272.55 225.47c-38.573 13.632-86.987 118.64-96.833 188.72 3.223 0.95097 17.834 11.485 27.931 17.755 36.098-31.768 76.664-68.055 197.78-53.953 77.382 9.0103 75.025-139.58 10.887-157.56-45.334-12.703-101.19-8.5968-139.76 5.035z" fill="#5ba8cb"/>
  <path d="m340.91 283.54c-15.982-0.00775-31.271 2.4261-50.875 7.6562-34.442 9.1888-90.085 43.336-109.78 99-1.9247 8.2974-3.4902 16.337-4.5625 23.969 3.223 0.95096 17.84 11.511 27.938 17.781 6.6428-5.8461 13.455-11.846 20.875-17.656 1.2552-0.98288 2.5192-1.9671 3.8125-2.9375 0.14668-0.11051 0.2903-0.23344 0.4375-0.34375 0.50028-0.37338 1.0248-0.72262 1.5312-1.0938 0.8063-0.59321 1.6146-1.1946 2.4375-1.7812 1.3437-0.95794 2.7332-1.906 4.125-2.8438 1.2209-0.8198 2.4576-1.6352 3.7188-2.4375l0.125-0.0625c0.64518-0.40972 1.3124-0.81406 1.9688-1.2188 0.93436-0.57733 1.8543-1.1839 2.8125-1.75 0.0842-0.04968 0.16561-0.10666 0.25-0.15625 1.4349-0.84433 2.9143-1.6521 4.4062-2.4688 1.3456-0.7362 2.7304-1.4755 4.125-2.1875l0.5625-0.28125c0.2757-0.13939 0.56607-0.26785 0.84375-0.40625 1.3625-0.67795 2.7126-1.379 4.125-2.0312 0.37012-0.17148 0.75138-0.33034 1.125-0.5 0.36493-0.16511 0.72539-0.33669 1.0938-0.5 0.75669-0.33686 1.5412-0.63953 2.3125-0.96875l0.875-0.375c0.61216-0.25709 1.2222-0.52912 1.8438-0.78125 0.09402-0.0379 0.18701-0.08722 0.28125-0.125 0.81404-0.32844 1.6383-0.61783 2.4688-0.9375 0.28212-0.10784 0.55968-0.23696 0.84375-0.34375 0.3591-0.13596 0.73155-0.27197 1.0938-0.40625l1.75-0.625 1.9688-0.6875c29.31-10.098 68.596-14.743 125.97-8.0625 24.673 2.8729 41.208-10.295 50.25-30.125 0.33695-22.47-20.573-50.066-55.781-57.281-22.311-4.5724-38.986-7.0235-54.969-7.0312z" fill="url(#a)" opacity=".5"/>
 </g>
 <g transform="translate(703.2 63.852)" fill-rule="evenodd">
  <path d="m-307.14 370.93a45.714 45.714 0 1 1 -91.429 0 45.714 45.714 0 1 1 91.429 0z" fill="#000080"/>
  <path transform="matrix(.71875 0 0 .71875 -100.31 103.61)" d="m-307.14 370.93a45.714 45.714 0 1 1 -91.429 0 45.714 45.714 0 1 1 91.429 0z" fill="#00f"/>
 </g>
</svg>
