<?xml version="1.0" encoding="UTF-8"?>
<svg viewBox="0 0 642.5 498.75" xmlns="http://www.w3.org/2000/svg">
 <defs>
  <clipPath id="a">
   <path d="m0 0h2142v1662h-2142v-1662z"/>
  </clipPath>
 </defs>
 <g transform="matrix(1.25,0,0,-1.25,0,498.75)">
  <g transform="scale(.24)">
   <g clip-path="url(#a)">
    <path d="m908.25,1374.25c77.891.01 141.11,63.24 141,141 .11,78.2-63.109,141.42-141,141-78.07.42-141.289-62.8-141-141-.289-77.76 62.93-140.99 141-141"/>
    <path d="m1048.2 1120.2v89c-0.3 189.39-279.87 187.31-280 0v-363h1l-264-264c-25.367-25.187-28.402-26.27-77-26-0.371-0.312-162 0-162 0-162.32-0.27-259.76-146.3-260-270 0.23828-123.91 97.68-280.42 275-280 0 0 219.37-0.41797 287 0 68.16-0.41797 150.46 25.539 218 89l843 840c17.57 16.105 27.55 21.09 59 21 0 0 115.62 0.09 207 0 100.58 0.09 242.25 113.54 242 277 0.25 161.95-142.46 269.88-250 270h-328c-68 0.23-155.32-27.52-207-80l-304-303"/>
    <path d="m1579.25,1363.25h295c72.18.45 120.54-79.91 121-128-.46-47.76-34.77-137.2-123-137h-177c-75.46-.2-108.79-10.75-152-54l-849-849c-34.07-34.109-77.629-47.719-134-48h-279c-72.297.281-135.652,61.102-136,141 .348,79.852 60.762,124.605 123,125h192c56.18-.395 92.98,15.578 125,48l863,863c35.43,35.02 70.51,39.45 131,39" fill="#fff"/>
   </g>
  </g>
 </g>
</svg>
