<?xml version="1.0" encoding="UTF-8"?>
<svg viewBox="0 0 135.79796 88.349442" xmlns="http://www.w3.org/2000/svg" xmlns:xlink="http://www.w3.org/1999/xlink">
 <defs>
  <filter id="p">
   <feGaussianBlur stdDeviation="2.1192"/>
  </filter>
  <filter id="o" x="-.0429" y="-.22385" width="1.0858" height="1.4477">
   <feGaussianBlur stdDeviation="2.5011"/>
  </filter>
  <filter id="b" x="-.20957" y="-.07274" width="1.4192" height="1.1455">
   <feGaussianBlur stdDeviation=".694"/>
  </filter>
  <linearGradient id="e">
   <stop stop-color="#808080" offset="0"/>
   <stop stop-color="#4a4c4c" offset="1"/>
  </linearGradient>
  <linearGradient id="n" x1="400.23" x2="398.89" y1="-322.83" y2="-288.35" gradientUnits="userSpaceOnUse">
   <stop stop-color="#707175" offset="0"/>
   <stop stop-color="#4d4d4d" offset="1"/>
  </linearGradient>
  <linearGradient id="a" x1="332.2" x2="329.67" y1="155.6" y2="128.56" gradientUnits="userSpaceOnUse">
   <stop stop-color="#fff" offset="0"/>
   <stop stop-color="#fff" stop-opacity="0" offset="1"/>
  </linearGradient>
  <linearGradient id="m" x1="260.62" x2="283.76" y1="10.947" y2="18.384" gradientTransform="matrix(-.55112 -.13968 -.13968 .55112 -111.46 -281.3)" gradientUnits="userSpaceOnUse">
   <stop stop-color="#333" offset="0"/>
   <stop stop-color="#999" offset=".5118"/>
   <stop stop-color="#1a1a1a" offset="1"/>
  </linearGradient>
  <linearGradient id="l" x1="-382.87" x2="-375.67" y1="-305.31" y2="-299.37" gradientTransform="matrix(-.99033 -.13875 -.13875 .99033 -633.39 -44.156)" gradientUnits="userSpaceOnUse">
   <stop offset="0"/>
   <stop stop-color="#4d4d4d" offset=".4865"/>
   <stop offset="1"/>
  </linearGradient>
  <linearGradient id="d">
   <stop stop-color="#ff8f00" offset="0"/>
   <stop stop-color="#ffd42a" offset="1"/>
  </linearGradient>
  <linearGradient id="k" x1="295.33" x2="286.34" y1="-526.7" y2="-547.66" gradientTransform="matrix(-.55112 -.13968 -.13968 .55112 -174.74 -31.617)" gradientUnits="userSpaceOnUse" xlink:href="#d"/>
  <linearGradient id="j" x1="325.9" x2="315.47" y1="-471.98" y2="-477.88" gradientTransform="matrix(-.55112 -.13968 -.13968 .55112 -174.79 -32.853)" gradientUnits="userSpaceOnUse" xlink:href="#d"/>
  <radialGradient id="g" cx="304.97" cy="-467.32" r="81.703" gradientTransform="matrix(-.47056 -.31909 -.21699 .32 -234.09 -86.483)" gradientUnits="userSpaceOnUse">
   <stop stop-color="#ff8a00" offset="0"/>
   <stop stop-color="#ffb300" offset="1"/>
  </radialGradient>
  <radialGradient id="c" cx="217.02" cy="-431.69" r="2.7043" gradientUnits="userSpaceOnUse">
   <stop stop-color="#fff" offset="0"/>
   <stop stop-color="#ccc" offset="1"/>
  </radialGradient>
  <radialGradient id="f" cx="500.29" cy="719.12" r="8.1114" gradientTransform="matrix(-.59995 -.01907 -.04374 1.376 -49.978 -1336)" gradientUnits="userSpaceOnUse">
   <stop stop-color="#333" offset="0"/>
   <stop stop-color="#1a1a1a" offset="1"/>
  </radialGradient>
  <radialGradient id="i" cx="245.08" cy="56.415" r="58.609" gradientTransform="matrix(-.52372 -.22127 -.23671 .56026 -108 -273.6)" gradientUnits="userSpaceOnUse" xlink:href="#e"/>
  <radialGradient id="h" cx="260.29" cy="75.765" r="58.609" gradientTransform="matrix(-.52372 -.22127 -.23671 .56026 -108.56 -271.32)" gradientUnits="userSpaceOnUse" xlink:href="#e"/>
 </defs>
 <g transform="matrix(.67119 0 0 .67119 -116.64 365.57)">
  <path d="m222.09375-531.8125c-.48276.0368-.85542.37671-1.03125.875-8.99707.0852-18.59141.97255-29.03125,2.65625-.6661,2.42503-1.26371,7.87941 2.28125,9.34375l11.875-.9375c5.28587-.39964 10.41356-.66558 15.46875-.71875 .29382.46568.73541.82481 1.21875.90625 .64065.10794 1.14431-.27483 1.34375-.90625 .89451.004 1.79838.0117 2.6875.0312 .27632.44415.66685.77989 1.125.875 .61757.12821 1.1405-.1912 1.375-.78125 .89962.0355 1.79255.0715 2.6875.125 .25466.4098.61007.73518 1.03125.84375 .59452.15326 1.10522-.13879 1.375-.6875 1.02453.0812 2.04291.17349 3.0625.28125 .25348.48347.65406.84735 1.125.96875 .58427.15062 1.10107-.12588 1.375-.65625 .88154.11338 1.77747.23945 2.65625.375 .16933.22017.38448.39403.625.5 .43969.19373.87572.0947 1.21875-.1875 .98098.16967 1.95894.33149 2.9375.53125 .17309.41189.47889.76.84375.9375 .56265.27373 1.12726.0677 1.5-.4375 .83963.19334 1.69257.40753 2.53125.625 .12705.53077.41713.98547.84375,1.21875 .61254.33494 1.2698.0945 1.65625-.53125 .90051.26041 1.78711.55325 2.6875.84375 .0474.69266.40641,1.3346.9375,1.625 .68108.37242 1.4278.0396 1.78125-.75 1.19184.426 2.40015.89183 3.59375,1.375 2.80538,1.32919 3.21774,1.74632 3.34375,3.1875 .002.0214-.002.0414 0,.0625-.0607.95556.43241,1.94843 1.28125,2.4375l.59375.34375c.8472.48812 1.81688.34871 2.4375-.28125 1.09322.2357 1.63701.73697 2.5,1.1875-.14757.8168-.24406,1.62399-.3125,2.4375 .0527.62574.49995.88368 1.6875,1.40625 3.68928,1.6234 5.33917,2.79609 5.90625,4.75 .0846.6102.13663,1.27431.0937,2.0625-.26445,4.86064-.18138,20.37931.125,22.40625 .0164.10828.0666.25446.0937.375 .0133.15007.017.40577.0312.5 .18489,1.2232 1.10193,3.27646 2.03125,4.59375 .28141.39888.58742.96138.90625,1.59375l2.84375-.8125c.66557,1.38698 1.34368,3.04291 1.75,4.46875 1.4377,5.04519 2.51014,7.60949 6.75,15.8125 .94484,1.82802 1.67681,3.20836 2.3125,4.375l-.0625.0312c0,0 4.13558,9.2587 7.71875,12.65625 1.3417,1.27221 3.07537,2.20071 4.875,2.625 1.36181.32109 2.81654.15442 4.1875-.125 10.17227-2.26048 22.43475-9.20731 29.09375-12.53125l1.84375,2.8125c.0466.0335.0616.0535.0937.0625 .11962.0303.55336-.15021 1.09375-.40625l8.125,11.5625c0,0 3.04093-.69832 4.375-1.46875 1.37514-.79412 3.59375-3.15625 3.59375-3.15625l-8.46875-11.46875c.44442-.32758.78351-.60497.8125-.71875 .15834-.62014-10.66628-15.59881-16.09375-25.03125-3.46422-6.02047-4.26366-7.80397-3.8125-9.5 .0645-.17714.16102-.34496.25-.53125 .0224-.0783.0125-.16883.0312-.25l.0625-.125c1.53621-5.36804-5.67894-17.70339-10.25-22.96875-1.17625-1.60515-6.16248-8.0105-5.9375-10.1875l.0625-.0937c.38894-.2909.58315-.53446.59375-.875 .21164-.37409.0922-.82074-.3125-1.625-1.31318-2.54439-8.49035-5.92214-11.5-7.34375-2.12228-.89667-4.24867-1.90637-6.46875-2.46875-1.72671-.4374-3.48574-.60098-5.34375-.28125-.56633-.14353-1.7337.2754-2.59375.9375-2.7978,2.1538-4.6968,2.49903-8.65625,1.5-3.87299-.97746-4.78067-.76825-5.6875,1.4375-.61796.84467-1.18616,1.75339-1.75,2.71875-.73605-.37612-1.20207-.76921-1.8125-1.5 .0845-.97385-.38391-1.96974-1.25-2.46875l-.59375-.34375c-1.09351-.63004-2.3776-.22237-2.875.9375l-.21875.5c-2.80478-1.32911-5.61661-2.52173-8.4375-3.59375 .0145-.77167-.32089-1.52367-.90625-1.84375-.70075-.38317-1.47319.005-1.8125.84375-.85414-.29896-1.70458-.56752-2.5625-.84375 .0464-.80468-.29699-1.5731-.90625-1.90625-.74947-.40981-1.58038.0337-1.875,1v.0312c-.85173-.24879-1.70565-.46044-2.5625-.6875 .029-.82743-.3599-1.62609-1-1.9375-.76812-.37369-1.59545.11456-1.84375,1.09375l-.0312.125c-.83194-.19568-1.66196-.38661-2.5-.5625 .0429-.8718-.37853-1.72988-1.0625-2.03125-.78168-.34442-1.57009.16838-1.78125,1.15625l-.0625.28125c-1.1526-.20894-2.30215-.38954-3.46875-.5625-.21714-.65673-.69711-1.19317-1.28125-1.34375-.69513-.17919-1.29471.26125-1.5,1-.94673-.11642-1.8863-.25005-2.84375-.34375-.23534-.59624-.70511-1.07828-1.25-1.21875-.69245-.1785-1.29242.23525-1.5.96875-.97145-.0727-1.95367-.10594-2.9375-.15625-.27304-.52071-.70943-.92552-1.21875-1.03125-.65892-.13679-1.23033.27229-1.4375.9375-.98556-.0301-1.96955-.0539-2.96875-.0625-.2937-.45522-.74247-.7635-1.21875-.84375-.10529-.0177-.21425-.0387-.3125-.0312zm-30.09375,16.1875c-1.16099.51213-5.31546,14.1131-5.40625,16.96875s1.99982,5.25831 4.6875,5.34375 4.94048-2.17561 5.03125-5.03125-3.02489-17.84924-4.3125-17.28125zm124.75,38.90625c.72041.007 1.40273.10117 2.03125.28125 .58018.16622 1.11504.37933 1.65625.6875 2.20672,1.2565 6.63509,7.49211 12.90625,18.1875 1.10649,1.88711 1.93788,3.34972 2.5625,4.46875-3.33944,1.8158-3.14114,1.1977-10.34375,6.375l.0937.125-10.25,6.875c-.14664-1.7667-.38431-4.92913-.59375-8.59375-.23471-4.10649-.66632-8.21079-1.09375-10.59375-.0709-.398-.14961-.73684-.21875-1.03125s-.12218-.5128-.1875-.6875c-.003-.009.003-.0222 0-.0312-.16209-.43352-.36016-.8318-.5625-1.21875-.15655-.29905-.31918-.57231-.5-.84375l-.0312-.0312c-.19641-.29183-.40006-.58402-.625-.84375-.10358-.11974-.20282-.23082-.3125-.34375-.14036-.14505-.28709-.27235-.4375-.40625-.15307-.13567-.30524-.28207-.46875-.40625-.0472-.0359-.10816-.0588-.15625-.0937-.19947-.14472-.41045-.27796-.625-.40625-.18275-.10973-.36874-.2147-.5625-.3125-.28396-.1427-.56729-.28898-.875-.40625l-.15625-.0625c-.36622-.13251-.75698-.24613-1.15625-.34375-.4563-.11159-.93763-.21525-1.4375-.28125l-2.53125-.3125-.59375-.0625 .90625-1.28125c.49382-.70427 1.11926-2.1159 1.375-3.125 .14285-.56362.30573-.98477.65625-1.375l-1.40625.40625c.87542-.50238 2.14152-1.08422 4.25-1.96875 3.84334-1.61233 6.52628-2.36599 8.6875-2.34375zm-13.03125,14.125 .21875.0625c.55504.18199 1.17493.36876 1.78125.5 1.98705.43007 2.67739.89857 3.34375,2.125 .0459.0845.10375.21666.15625.4375 .003.0128-.003.018 0,.0312 .0508.21732.10073.48538.15625.8125 .11691.68268.24626,1.5616.375,2.625 .12648,1.04469.24924,2.23255.375,3.5 .12692,1.27721.26101,2.61014.375,3.96875 .113,1.34682.22429,2.68596.3125,3.96875 .17759,2.57766.27618,4.85777.28125,6.3125 .003.72455-.0354,1.23841-.0937,1.46875-.003.0107.003.0208 0,.0312l-.71875.46875c-.64549-.14867-1.58637-1.06266-2.5-2.53125-.77431-1.24464-3.51535-6.056-6.09375-10.65625-1.8771-3.349-3.01941-5.46439-3.65625-6.9375 .47493-.0546.93352-.15924 1.375-.3125l7.8125,10.96875-5.40625-12.4375c.93924-.92447 1.62143-2.161 1.84375-3.5625 .0451-.28424.0568-.55914.0625-.84375z" filter="url(#p)" opacity=".6" stroke="#4d4d4d" stroke-width=".56854"/>
  <g transform="translate(571.43 -143.22)">
   <path d="m-231.21291-309.46288 5.62987,8.66667c-.0751.0484-.1448.10043-.22896.18024-.39801.37734-.84706,1.11884-.98348,1.6386-6.65898,3.32394-18.92053,10.27122-29.0928,12.53169-1.37096.27944-2.84862.44537-4.21043.12429-1.79964-.42428-3.52775-1.35489-4.86945-2.62709-.29713-.28174-.60864-.61021-.91043-.96389l20.08968-13.45712-.0727-.14674c7.47755-5.37493 6.88986-4.46045 10.66047-6.55421l3.26331.93703c.13676-.0785.29485-.15447.50063-.2397 .0818-.0339.15696-.0529.22436-.0898z" fill="url(#i)" stroke="#4d4d4d" stroke-width=".56854"/>
   <g transform="matrix(-.55112 -.13968 -.13968 .55112 -97.082 -403.75)">
    <path transform="translate(0 452.36)" d="m333.69-318.94c-0.88729-1.6768-2.4561-2.5507-4.125-2.375-1.1615 0.12226-2.383 0.76847-3.4375 2-2.3213 1.8259-3.3538 1.9819-6.3438 2.5625l4.0625 19.938c2.3501-0.50189 3.5654-1.5631 7.1562-0.71875 3.1933 1.455 5.1005 0.60578 6.2812-2.7812 0.83759-2.4027 1.7675-2.9147 7.125-3.9688 35.24-4.8376 66.865 2.5066 101.12 14l19.844 6.6875c6.6768-0.96485 7.9628-10.484 7.875-14.906-52.333-22.628-93.959-29.601-139.56-20.438z" fill="url(#n)"/>
    <path d="m368.09 135.56c-13.32 0.27817-26.468 2.1245-39.469 5.0312 2.5343-3.5735-2.9619-1.2855-1.4062 0.5625 1.0784 2.9794-0.78153 8.4372 4.125 7.875 1.6984-0.0983 2.4137-3.753 4.7188-4.3438 8.5216-4.8065 18.924-3.0388 28.312-4.1562 34.801-0.52612 68.55 10.786 100.91 21.656 1.8677-1.8743 2.7196-5.6593-1.1445-5.6908-30.435-12.506-62.824-21.854-96.043-20.934zm97.062 26.719c-0.0429 0.0577 0.10364 0.0325 0 0z" fill="#fff" filter="url(#o)" opacity=".7652"/>
    <path transform="matrix(1 0 0 .69537 -5.4086 45.848)" d="m330.52 130.99c-5.9273 0.36984-2.296 7.8024-2.1329 11.247 1.5168 3.3554-0.30728 9.3788 2.7892 11.597 4.5902 0.53595 4.4556-5.1155 3.0344-8.0953-1.4278-4.5808-0.44588-10.496-2.8469-14.561-0.24644-0.15395-0.56063-0.248-0.84375-0.1875z" fill="url(#a)" filter="url(#b)"/>
    <path transform="matrix(.96256,-.27106,.15626,.98772,0,0)" d="m306.52 215.52h1.2309a4.0068 4.0068 0 0 1 4.0068 4.0068v18.601a4.0068 4.0068 0 0 1 -4.0068 4.0068h-1.2309a4.0068 4.0068 0 0 1 -4.0068 -4.0068v-18.601a4.0068 4.0068 0 0 1 4.0068 -4.0068" fill="#4d4d4d"/>
    <path d="m330.52 130.99c-5.9273 0.36984-2.296 7.8024-2.1329 11.247 1.5168 3.3554-0.30728 9.3788 2.7892 11.597 4.5902 0.53595 4.4556-5.1155 3.0344-8.0953-1.4278-4.5808-0.44588-10.496-2.8469-14.561-0.24644-0.15395-0.56063-0.248-0.84375-0.1875z" fill="url(#a)" filter="url(#b)"/>
    <g transform="matrix(.57551 .07263 -.05238 .79799 170.09 .6853)">
     <path transform="matrix(.96256,-.27106,.15626,.98772,0,0)" d="m306.52 215.52h1.2309a4.0068 4.0068 0 0 1 4.0068 4.0068v18.601a4.0068 4.0068 0 0 1 -4.0068 4.0068h-1.2309a4.0068 4.0068 0 0 1 -4.0068 -4.0068v-18.601a4.0068 4.0068 0 0 1 4.0068 -4.0068" fill="#4d4d4d"/>
     <path d="m330.52 130.99c-5.9273 0.36984-2.296 7.8024-2.1329 11.247 1.5168 3.3554-0.30728 9.3788 2.7892 11.597 4.5902 0.53595 4.4556-5.1155 3.0344-8.0953-1.4278-4.5808-0.44588-10.496-2.8469-14.561-0.24644-0.15395-0.56063-0.248-0.84375-0.1875z" fill="url(#a)" filter="url(#b)"/>
    </g>
    <g transform="matrix(.57551 .07263 -.05238 .79799 179.9 -.32881)">
     <path transform="matrix(.96256,-.27106,.15626,.98772,0,0)" d="m306.52 215.52h1.2309a4.0068 4.0068 0 0 1 4.0068 4.0068v18.601a4.0068 4.0068 0 0 1 -4.0068 4.0068h-1.2309a4.0068 4.0068 0 0 1 -4.0068 -4.0068v-18.601a4.0068 4.0068 0 0 1 4.0068 -4.0068" fill="#4d4d4d"/>
     <path d="m330.52 130.99c-5.9273 0.36984-2.296 7.8024-2.1329 11.247 1.5168 3.3554-0.30728 9.3788 2.7892 11.597 4.5902 0.53595 4.4556-5.1155 3.0344-8.0953-1.4278-4.5808-0.44588-10.496-2.8469-14.561-0.24644-0.15395-0.56063-0.248-0.84375-0.1875z" fill="url(#a)" filter="url(#b)"/>
    </g>
    <g transform="matrix(.5714 .09993 -.09029 .79459 196.14 -9.229)">
     <path transform="matrix(.96256,-.27106,.15626,.98772,0,0)" d="m306.52 215.52h1.2309a4.0068 4.0068 0 0 1 4.0068 4.0068v18.601a4.0068 4.0068 0 0 1 -4.0068 4.0068h-1.2309a4.0068 4.0068 0 0 1 -4.0068 -4.0068v-18.601a4.0068 4.0068 0 0 1 4.0068 -4.0068" fill="#4d4d4d"/>
     <path d="m330.52 130.99c-5.9273 0.36984-2.296 7.8024-2.1329 11.247 1.5168 3.3554-0.30728 9.3788 2.7892 11.597 4.5902 0.53595 4.4556-5.1155 3.0344-8.0953-1.4278-4.5808-0.44588-10.496-2.8469-14.561-0.24644-0.15395-0.56063-0.248-0.84375-0.1875z" fill="url(#a)" filter="url(#b)"/>
    </g>
    <g transform="matrix(.56722 .12143 -.12023 .79062 211.26 -15.785)">
     <path transform="matrix(.96256,-.27106,.15626,.98772,0,0)" d="m306.52 215.52h1.2309a4.0068 4.0068 0 0 1 4.0068 4.0068v18.601a4.0068 4.0068 0 0 1 -4.0068 4.0068h-1.2309a4.0068 4.0068 0 0 1 -4.0068 -4.0068v-18.601a4.0068 4.0068 0 0 1 4.0068 -4.0068" fill="#4d4d4d"/>
     <path d="m330.52 130.99c-5.9273 0.36984-2.296 7.8024-2.1329 11.247 1.5168 3.3554-0.30728 9.3788 2.7892 11.597 4.5902 0.53595 4.4556-5.1155 3.0344-8.0953-1.4278-4.5808-0.44588-10.496-2.8469-14.561-0.24644-0.15395-0.56063-0.248-0.84375-0.1875z" fill="url(#a)" filter="url(#b)"/>
    </g>
    <g transform="matrix(.54006 .21173 -.24673 .76069 248.06 -39.571)">
     <path transform="matrix(.96256,-.27106,.15626,.98772,0,0)" d="m306.52 215.52h1.2309a4.0068 4.0068 0 0 1 4.0068 4.0068v18.601a4.0068 4.0068 0 0 1 -4.0068 4.0068h-1.2309a4.0068 4.0068 0 0 1 -4.0068 -4.0068v-18.601a4.0068 4.0068 0 0 1 4.0068 -4.0068" fill="#4d4d4d"/>
     <path d="m330.52 130.99c-5.9273 0.36984-2.296 7.8024-2.1329 11.247 1.5168 3.3554-0.30728 9.3788 2.7892 11.597 4.5902 0.53595 4.4556-5.1155 3.0344-8.0953-1.4278-4.5808-0.44588-10.496-2.8469-14.561-0.24644-0.15395-0.56063-0.248-0.84375-0.1875z" fill="url(#a)" filter="url(#b)"/>
    </g>
    <g transform="matrix(.54006 .21173 -.24673 .76069 257.81 -38.147)">
     <path transform="matrix(.96256,-.27106,.15626,.98772,0,0)" d="m306.52 215.52h1.2309a4.0068 4.0068 0 0 1 4.0068 4.0068v18.601a4.0068 4.0068 0 0 1 -4.0068 4.0068h-1.2309a4.0068 4.0068 0 0 1 -4.0068 -4.0068v-18.601a4.0068 4.0068 0 0 1 4.0068 -4.0068" fill="#4d4d4d"/>
     <path d="m330.52 130.99c-5.9273 0.36984-2.296 7.8024-2.1329 11.247 1.5168 3.3554-0.30728 9.3788 2.7892 11.597 4.5902 0.53595 4.4556-5.1155 3.0344-8.0953-1.4278-4.5808-0.44588-10.496-2.8469-14.561-0.24644-0.15395-0.56063-0.248-0.84375-0.1875z" fill="url(#a)" filter="url(#b)"/>
    </g>
    <g transform="matrix(.52937 .23718 -.28265 .74809 275.74 -42.787)">
     <path transform="matrix(.96256,-.27106,.15626,.98772,0,0)" d="m306.52 215.52h1.2309a4.0068 4.0068 0 0 1 4.0068 4.0068v18.601a4.0068 4.0068 0 0 1 -4.0068 4.0068h-1.2309a4.0068 4.0068 0 0 1 -4.0068 -4.0068v-18.601a4.0068 4.0068 0 0 1 4.0068 -4.0068" fill="#4d4d4d"/>
     <path d="m330.52 130.99c-5.9273 0.36984-2.296 7.8024-2.1329 11.247 1.5168 3.3554-0.30728 9.3788 2.7892 11.597 4.5902 0.53595 4.4556-5.1155 3.0344-8.0953-1.4278-4.5808-0.44588-10.496-2.8469-14.561-0.24644-0.15395-0.56063-0.248-0.84375-0.1875z" fill="url(#a)" filter="url(#b)"/>
    </g>
    <g transform="matrix(.52004 .257 -.31069 .73689 292.01 -45.428)">
     <path transform="matrix(.96256,-.27106,.15626,.98772,0,0)" d="m306.52 215.52h1.2309a4.0068 4.0068 0 0 1 4.0068 4.0068v18.601a4.0068 4.0068 0 0 1 -4.0068 4.0068h-1.2309a4.0068 4.0068 0 0 1 -4.0068 -4.0068v-18.601a4.0068 4.0068 0 0 1 4.0068 -4.0068" fill="#4d4d4d"/>
     <path d="m330.52 130.99c-5.9273 0.36984-2.296 7.8024-2.1329 11.247 1.5168 3.3554-0.30728 9.3788 2.7892 11.597 4.5902 0.53595 4.4556-5.1155 3.0344-8.0953-1.4278-4.5808-0.44588-10.496-2.8469-14.561-0.24644-0.15395-0.56063-0.248-0.84375-0.1875z" fill="url(#a)" filter="url(#b)"/>
    </g>
   </g>
   <path d="m-268.38-322.34c0.58428 1.1846 0.79787 2.5109 0.59095 3.8155-0.22232 1.4015-0.89502 2.6246-1.8343 3.5491l5.4065 12.441-7.7986-10.958c-0.96092 0.33358-2.02 0.44919-3.0948 0.27869l1.0115-6.3053 5.7188-2.8212z" fill="#999"/>
   <path d="m-266.22-329.59c-0.35052 0.39023-0.51659 0.80886-0.65944 1.3725-0.25574 1.0091-0.86502 2.4155-1.3588 3.1197l-0.90904 1.2726 3.1228 0.40653c3.999 0.52778 6.5973 2.5118 7.9008 5.998 0.52254 1.3976 1.1999 6.8837 1.5114 12.333 0.3086 5.3996 0.63407 9.9305 0.72579 10.081s4.2937-2.6067 9.3448-6.1362c7.6132-5.478 6.9807-4.53 10.773-6.6357l3.2633 0.93703c0.13676-0.0785 0.29485-0.15446 0.50063-0.23969 0.57754-0.2392 0.82084-0.49263 0.3844-1.5888l8.7339 13.559c-0.3106-0.19121-0.98616-1.04-1.5836-1.996-0.99796-1.5967-1.3026-1.7923-1.9093-1.217-0.398 0.37734-0.84705 1.1188-0.98347 1.6386-6.659 3.3239-18.921 10.271-29.093 12.532-1.371 0.27942-2.8486 0.44536-4.2104 0.12427-1.7996-0.42429-3.5278-1.3549-4.8694-2.6271-3.5832-3.3976-7.6983-12.655-7.6983-12.655l0.0648-0.0386c-0.63569-1.1666-1.3722-2.5532-2.3171-4.3813-4.2399-8.203-5.3369-10.748-6.7746-15.793-0.44902-1.5757-1.2063-3.4713-1.9404-4.9273l17.981-5.1387zm-3.0515 9.509c-1.0922-0.41661-3.6423 0.90514-3.3456 1.8464 0.10648 0.33781-0.073 0.54972-0.39364 0.46842s-0.77297 0.591-1.0046 1.505c-0.34607 1.3655 0.40717 3.1509 4.2595 10.024 2.5784 4.6002 5.3275 9.3928 6.1018 10.637 1.4146 2.274 2.9368 3.238 3.2382 2.0487 0.467-1.8427-1.2073-21.795-1.9418-23.146-0.66636-1.2264-1.3802-1.688-3.3672-2.1181-1.3879-0.30041-2.8996-0.82167-3.3531-1.1614-0.0585-0.0438-0.12073-0.0764-0.19357-0.10407z" fill="url(#h)" stroke="#4d4d4d" stroke-width=".56854"/>
   <path d="m-264.5948-323.15561c3.19417.781 5.32619,2.67575 6.46673,5.72622 .52255,1.39758 1.19993,6.88368 1.51141,12.33335 .30861,5.39963.63408,9.9305.7258,10.08144 .009.0146.0732.003.15524-.034l-.0924.58144-4.95185,1.53096-.0428-.1208c.19443-.0491.33008-.21759.40238-.50287 .467-1.84269-1.20733-21.79458-1.94181-23.14639-.66637-1.22643-1.38017-1.68798-3.36722-2.11806-1.38786-.30041-2.89958-.82168-3.35306-1.16139-.0585-.0438-.12073-.0764-.19358-.10407-.45867-.17497-1.16951-.0286-1.82358.25266l2.55076-3.91739 2.51979.32699c.49987.066.97777.16022 1.43407.27181z" fill="url(#m)"/>
   <path d="m-217.47-299.78 9.2047 12.508s-2.197 2.3577-3.5722 3.1519c-1.3341 0.77043-4.3806 1.4733-4.3806 1.4733l-9.133-13.019z" fill="url(#l)"/>
   <path d="m-269.29-380.47c2.2201 0.56238 4.368 1.5547 6.4903 2.4514 3.0096 1.4216 10.181 4.8226 11.495 7.367 0.58869 1.1698 0.54911 1.564-0.18783 2.1152-1.2923 1.5031 4.4926 8.9018 5.77 10.645 4.5711 5.2654 11.787 17.611 10.25 22.979-1.0081 2.1105-0.59297 3.3306 3.4826 10.414 5.4275 9.4324 16.241 24.413 16.083 25.033-0.16959 0.66557-8.8616 5.8297-9.5286 5.6607-0.0322-9e-3 -0.0652-0.0315-0.11183-0.065l-8.7082-13.516c-5e-3 -0.0134-3e-3 -0.0251-9e-3 -0.0387-0.45859-1.1307-1.6213-3.1544-3.8343-6.9286-6.2712-10.695-10.692-16.914-12.899-18.17-0.54121-0.30817-1.0895-0.55019-1.6696-0.71641-2.5141-0.72032-5.5732-0.0772-10.698 2.0726-3.3736 1.4152-4.775 2.0795-5.4645 2.8307l-18.003 5.1515c-0.31883-0.63237-0.63561-1.1899-0.91702-1.5887-0.92932-1.3173-1.8341-3.3941-2.019-4.6173-0.30639-2.0269-0.39885-17.534-0.13441-22.395 0.21757-3.9991-0.88811-5.3898-6.1157-7.6901-1.1876-0.52257-1.6621-0.78028-1.7148-1.406 0.48503-5.7656 3.068-11.751 6.1837-16.01 0.90683-2.2058 1.7896-2.4199 5.6626-1.4425 3.9594 0.99903 5.8641 0.665 8.6619-1.4888 0.86005-0.6621 2.0179-1.0832 2.5842-0.93967 1.858-0.31973 3.6243-0.1443 5.351 0.2931z" fill="url(#g)"/>
   <path d="m-269.39-380.09c2.2201 0.56238 4.368 1.5547 6.4903 2.4514 3.0097 1.4216 10.181 4.8226 11.495 7.367 0.5887 1.1698 0.5491 1.564-0.18783 2.1152-1.2923 1.5031 4.4926 8.9019 5.77 10.645 4.5711 5.2654 11.787 17.611 10.25 22.979-0.35593 0.74516-0.5268 1.3802-0.42941 2.2006-3.4197-5.705-15.44-25.083-25.246-32.297-7.54-5.5468-23.727-10.019-30.514-11.729l0.11256-0.15475c0.90683-2.2058 1.7896-2.42 5.6626-1.4425 3.9594 0.99903 5.8641 0.665 8.6619-1.4888 0.86006-0.66209 2.0179-1.0832 2.5842-0.93965 1.858-0.31973 3.6243-0.14432 5.351 0.29309z" fill="url(#k)"/>
   <path d="m-290.89-356.88c3.2983 2.0055 7.2243 4.8954 8.2828 7.8177 2.3113 6.3817-0.41642 16.884-3.1522 24.66l-1.2077 0.35375c-0.31884-0.63236-0.63562-1.1898-0.91702-1.5887-0.92932-1.3173-1.8341-3.3941-2.019-4.6173-0.30638-2.0269-0.39885-17.534-0.1344-22.395 0.10119-1.8599-0.0997-3.1446-0.85246-4.23z" fill="url(#j)"/>
   <path transform="matrix(-.37889 -.09603 -.09603 .37889 -193.53 -115.6)" d="m219.72-431.69c0 1.4935-1.2108 2.7043-2.7043 2.7043s-2.7043-1.2108-2.7043-2.7043 1.2108-2.7043 2.7043-2.7043 2.7043 1.2108 2.7043 2.7043z" fill="url(#c)"/>
   <path transform="matrix(-.37889 -.09603 -.09603 .37889 -230.52 -133.39)" d="m219.72-431.69c0 1.4935-1.2108 2.7043-2.7043 2.7043s-2.7043-1.2108-2.7043-2.7043 1.2108-2.7043 2.7043-2.7043 2.7043 1.2108 2.7043 2.7043z" fill="url(#c)"/>
   <path d="m-384.85-355.43c-0.0908 2.8556 2.0144 5.2399 4.7021 5.3253s4.94-2.1603 5.0308-5.0159-3.0342-17.857-4.3218-17.289c-1.161 0.51213-5.3203 14.124-5.4111 16.979z" fill="url(#f)"/>
  </g>
 </g>
</svg>
